<svg xmlns="http://www.w3.org/2000/svg" xmlns:xlink="http://www.w3.org/1999/xlink" viewBox="0 0 500 500" width="500" height="500" preserveAspectRatio="xMidYMid meet" style="width: 100%; height: 100%; transform: translate3d(0px, 0px, 0px); content-visibility: visible;"><defs><clipPath id="__lottie_element_10"><rect width="500" height="500" x="0" y="0"/></clipPath><clipPath id="__lottie_element_13"><path d="M0,0 L500,0 L500,500 L0,500z"/></clipPath><clipPath id="__lottie_element_17"><path d="M0,0 L500,0 L500,500 L0,500z"/></clipPath><clipPath id="__lottie_element_21"><path d="M0,0 L500,0 L500,500 L0,500z"/></clipPath><clipPath id="__lottie_element_25"><path d="M0,0 L500,0 L500,500 L0,500z"/></clipPath><clipPath id="__lottie_element_29"><path d="M0,0 L500,0 L500,500 L0,500z"/></clipPath><clipPath id="__lottie_element_33"><path d="M0,0 L500,0 L500,500 L0,500z"/></clipPath><clipPath id="__lottie_element_37"><path d="M0,0 L500,0 L500,500 L0,500z"/></clipPath><g id="__lottie_element_59"><g clip-path="url(#__lottie_element_60)" transform="matrix(1,0,0,1,0,0)" opacity="1" style="display: none;"><g class="primary design" transform="matrix(0.7091304063796997,-0.705045223236084,0.705045223236084,0.7091304063796997,250.00399780273438,381.5426025390625)" opacity="1" style="display: block;"><g opacity="1" transform="matrix(1,0,0,1,0,0)"><path stroke-linecap="round" stroke-linejoin="round" fill-opacity="0" stroke="rgb(0,0,0)" stroke-opacity="1" stroke-width="41" d=" M67.70899963378906,67.70899963378906 C67.70899963378906,67.70899963378906 67.70899963378906,67.70899963378906 67.70899963378906,67.70899963378906"/></g></g><g class="primary design" transform="matrix(0.8204867839813232,0.571625828742981,-0.571625828742981,0.8204867839813232,250.00399780273438,381.5426025390625)" opacity="1" style="display: block;"><g opacity="1" transform="matrix(1,0,0,1,0,0)"><path stroke-linecap="round" stroke-linejoin="round" fill-opacity="0" stroke="rgb(0,0,0)" stroke-opacity="1" stroke-width="41" d=" M-67.70899963378906,67.70899963378906 C-67.70899963378906,67.70899963378906 -67.70899963378906,67.70899963378906 -67.70899963378906,67.70899963378906"/></g></g><g class="primary design" style="display: none;"><g><path stroke-linecap="round" stroke-linejoin="round" fill-opacity="0"/></g></g></g></g><clipPath id="__lottie_element_60"><path d="M0,0 L500,0 L500,500 L0,500z"/></clipPath><filter id="__lottie_element_63" filterUnits="objectBoundingBox" x="0%" y="0%" width="100%" height="100%"><feComponentTransfer in="SourceGraphic"><feFuncA type="table" tableValues="1.0 0.0"/></feComponentTransfer></filter><mask id="__lottie_element_59_2" mask-type="alpha"><g filter="url(#__lottie_element_63)"><rect width="500" height="500" x="0" y="0" fill="#ffffff" opacity="0"/><use xmlns:ns1="http://www.w3.org/1999/xlink" ns1:href="#__lottie_element_59"/></g></mask><g id="__lottie_element_79"><g clip-path="url(#__lottie_element_80)" transform="matrix(1,0,0,1,0,0)" opacity="1" style="display: none;"><g class="primary design" transform="matrix(1,0.000005356202564144041,-0.000005356202564144041,1,250.00384521484375,250.0029754638672)" opacity="1" style="display: block;"><g opacity="1" transform="matrix(1,0,0,1,0,0)"><path stroke-linecap="round" stroke-linejoin="round" fill-opacity="0" stroke="rgb(0,0,0)" stroke-opacity="1" stroke-width="41" d=" M67.7087631225586,67.7087631225586 C67.7087631225586,67.7087631225586 -67.7088394165039,-67.70882415771484 -67.7088394165039,-67.70882415771484"/></g></g><g class="primary design" transform="matrix(1,0.000005356202564144041,-0.000005356202564144041,1,250.00405883789062,250.0029754638672)" opacity="1" style="display: block;"><g opacity="1" transform="matrix(1,0,0,1,0,0)"><path stroke-linecap="round" stroke-linejoin="round" fill-opacity="0" stroke="rgb(0,0,0)" stroke-opacity="1" stroke-width="41" d=" M-67.70899963378906,67.70899963378906 C-67.70899963378906,67.70899963378906 67.70899963378906,-67.70899963378906 67.70899963378906,-67.70899963378906"/></g></g></g></g><clipPath id="__lottie_element_80"><path d="M0,0 L500,0 L500,500 L0,500z"/></clipPath><filter id="__lottie_element_83" filterUnits="objectBoundingBox" x="0%" y="0%" width="100%" height="100%"><feComponentTransfer in="SourceGraphic"><feFuncA type="table" tableValues="1.0 0.0"/></feComponentTransfer></filter><mask id="__lottie_element_79_2" mask-type="alpha"><g filter="url(#__lottie_element_83)"><rect width="500" height="500" x="0" y="0" fill="#ffffff" opacity="0"/><use xmlns:ns2="http://www.w3.org/1999/xlink" ns2:href="#__lottie_element_79"/></g></mask><g id="__lottie_element_94"><g clip-path="url(#__lottie_element_95)" transform="matrix(1,0,0,1,0,0)" opacity="1" style="display: none;"><g class="primary design" transform="matrix(1,0,0,1,250.00399780273438,250.0030059814453)" opacity="1" style="display: block;"><g opacity="1" transform="matrix(1,0,0,1,0,0)"><path stroke-linecap="round" stroke-linejoin="round" fill-opacity="0" stroke="rgb(0,0,0)" stroke-opacity="1" stroke-width="41" d=" M-67.71725463867188,67.71726989746094 C-67.71725463867188,67.71726989746094 67.6987533569336,-67.69874572753906 67.6987533569336,-67.69874572753906"/></g></g><g class="primary design" transform="matrix(0,-1,1,0,250.00399780273438,250.0030059814453)" opacity="1" style="display: block;"><g opacity="1" transform="matrix(1,0,0,1,0,0)"><path stroke-linecap="round" stroke-linejoin="round" fill-opacity="0" stroke="rgb(0,0,0)" stroke-opacity="1" stroke-width="41" d=" M-67.71725463867188,67.71726989746094 C-67.71725463867188,67.71726989746094 67.6987533569336,-67.69874572753906 67.6987533569336,-67.69874572753906"/></g></g></g></g><clipPath id="__lottie_element_95"><path d="M0,0 L500,0 L500,500 L0,500z"/></clipPath><filter id="__lottie_element_98" filterUnits="objectBoundingBox" x="0%" y="0%" width="100%" height="100%"><feComponentTransfer in="SourceGraphic"><feFuncA type="table" tableValues="1.0 0.0"/></feComponentTransfer></filter><mask id="__lottie_element_94_2" mask-type="alpha"><g filter="url(#__lottie_element_98)"><rect width="500" height="500" x="0" y="0" fill="#ffffff" opacity="0"/><use xmlns:ns3="http://www.w3.org/1999/xlink" ns3:href="#__lottie_element_94"/></g></mask><g id="__lottie_element_108"><g clip-path="url(#__lottie_element_109)" transform="matrix(1,0,0,1,0,0)" opacity="1" style="display: none;"><g class="primary design" transform="matrix(1.0000509023666382,0.00006909025978529826,-0.00006909025978529826,1.0000509023666382,250.00401306152344,250.0030059814453)" opacity="1" style="display: block;"><g opacity="1" transform="matrix(1,0,0,1,0,0)"><path stroke-linecap="round" stroke-linejoin="round" fill-opacity="0" stroke="rgb(255,0,0)" stroke-opacity="1" stroke-width="41" d=" M67.70899963378906,67.70899963378906 C67.70899963378906,67.70899963378906 -67.70899963378906,-67.70899963378906 -67.70899963378906,-67.70899963378906"/></g></g><g class="primary design" transform="matrix(1.0000509023666382,0.00006909025978529826,-0.00006909025978529826,1.0000509023666382,250.00401306152344,250.0030059814453)" opacity="1" style="display: block;"><g opacity="1" transform="matrix(1,0,0,1,0,0)"><path stroke-linecap="round" stroke-linejoin="round" fill-opacity="0" stroke="rgb(255,0,0)" stroke-opacity="1" stroke-width="41" d=" M-67.70899963378906,67.70899963378906 C-67.70899963378906,67.70899963378906 67.70899963378906,-67.70899963378906 67.70899963378906,-67.70899963378906"/></g></g></g></g><clipPath id="__lottie_element_109"><path d="M0,0 L500,0 L500,500 L0,500z"/></clipPath><filter id="__lottie_element_112" filterUnits="objectBoundingBox" x="0%" y="0%" width="100%" height="100%"><feComponentTransfer in="SourceGraphic"><feFuncA type="table" tableValues="1.0 0.0"/></feComponentTransfer></filter><mask id="__lottie_element_108_2" mask-type="alpha"><g filter="url(#__lottie_element_112)"><rect width="500" height="500" x="0" y="0" fill="#ffffff" opacity="0"/><use xmlns:ns4="http://www.w3.org/1999/xlink" ns4:href="#__lottie_element_108"/></g></mask><g id="__lottie_element_123"><g clip-path="url(#__lottie_element_124)" transform="matrix(1,0,0,1,0,0)" opacity="1" style="display: none;"><g class="primary design" transform="matrix(1,0.000015670137145207264,-0.000015670137145207264,1,250.00399780273438,250.0030059814453)" opacity="1" style="display: block;"><g opacity="1" transform="matrix(1,0,0,1,0,0)"><path stroke-linecap="round" stroke-linejoin="round" fill-opacity="0" stroke="rgb(0,0,0)" stroke-opacity="1" stroke-width="41" d=" M67.70899963378906,67.70899963378906 C67.70899963378906,67.70899963378906 -67.70899963378906,-67.70899963378906 -67.70899963378906,-67.70899963378906"/></g></g><g class="primary design" transform="matrix(1,0.0000031319430036091944,-0.0000031319430036091944,1,250.00399780273438,250.0030059814453)" opacity="1" style="display: block;"><g opacity="1" transform="matrix(1,0,0,1,0,0)"><path stroke-linecap="round" stroke-linejoin="round" fill-opacity="0" stroke="rgb(0,0,0)" stroke-opacity="1" stroke-width="41" d=" M-67.70899963378906,67.70899963378906 C-67.70899963378906,67.70899963378906 67.70899963378906,-67.70899963378906 67.70899963378906,-67.70899963378906"/></g></g></g></g><clipPath id="__lottie_element_124"><path d="M0,0 L500,0 L500,500 L0,500z"/></clipPath><filter id="__lottie_element_127" filterUnits="objectBoundingBox" x="0%" y="0%" width="100%" height="100%"><feComponentTransfer in="SourceGraphic"><feFuncA type="table" tableValues="1.0 0.0"/></feComponentTransfer></filter><mask id="__lottie_element_123_2" mask-type="alpha"><g filter="url(#__lottie_element_127)"><rect width="500" height="500" x="0" y="0" fill="#ffffff" opacity="0"/><use xmlns:ns5="http://www.w3.org/1999/xlink" ns5:href="#__lottie_element_123"/></g></mask><g id="__lottie_element_137"><g clip-path="url(#__lottie_element_138)" style="display: none;" transform="matrix(1,0,0,1,0,0)" opacity="1"><g class="primary design" transform="matrix(1,0.0000016861123413036694,-0.0000016861123413036694,1,250.00399780273438,250.0030059814453)" opacity="1" style="display: block;"><g opacity="1" transform="matrix(1,0,0,1,0,0)"><path stroke-linecap="round" stroke-linejoin="round" fill-opacity="0" stroke="rgb(0,0,0)" stroke-opacity="1" stroke-width="41" d=" M67.70899963378906,67.70899963378906 C67.70899963378906,67.70899963378906 -67.70899963378906,-67.70899963378906 -67.70899963378906,-67.70899963378906"/></g></g><g class="primary design" transform="matrix(1,-0.0000016861123413036694,0.0000016861123413036694,1,250.00399780273438,250.0030059814453)" opacity="1" style="display: block;"><g opacity="1" transform="matrix(1,0,0,1,0,0)"><path stroke-linecap="round" stroke-linejoin="round" fill-opacity="0" stroke="rgb(0,0,0)" stroke-opacity="1" stroke-width="41" d=" M-67.70899963378906,67.70899963378906 C-67.70899963378906,67.70899963378906 67.70899963378906,-67.70899963378906 67.70899963378906,-67.70899963378906"/></g></g></g></g><clipPath id="__lottie_element_138"><path d="M0,0 L500,0 L500,500 L0,500z"/></clipPath><filter id="__lottie_element_141" filterUnits="objectBoundingBox" x="0%" y="0%" width="100%" height="100%"><feComponentTransfer in="SourceGraphic"><feFuncA type="table" tableValues="1.0 0.0"/></feComponentTransfer></filter><mask id="__lottie_element_137_2" mask-type="alpha"><g filter="url(#__lottie_element_141)"><rect width="500" height="500" x="0" y="0" fill="#ffffff" opacity="0"/><use xmlns:ns6="http://www.w3.org/1999/xlink" ns6:href="#__lottie_element_137"/></g></mask></defs><g clip-path="url(#__lottie_element_10)"><g clip-path="url(#__lottie_element_13)" transform="matrix(1,0,0,1,0,0)" opacity="0" style="display: block;"><g class="primary design" transform="matrix(-1,0,0,-1,250.00399780273438,250.0030059814453)" opacity="1" style="display: block;"><path fill="rgb(198,31,21)" fill-opacity="1" d=" M192.65199279785156,-4.656000137329102 C195.2239990234375,101.74299621582031 111.05500030517578,190.0800018310547 4.656000137329102,192.65199279785156 C-101.74299621582031,195.2239990234375 -190.0800018310547,111.05500030517578 -192.65199279785156,4.656000137329102 C-195.2239990234375,-101.74299621582031 -111.05500030517578,-190.0800018310547 -4.656000137329102,-192.65199279785156 C101.74299621582031,-195.2239990234375 190.0800018310547,-111.05500030517578 192.65199279785156,-4.656000137329102z"/><g opacity="1" transform="matrix(1,0,0,1,0,0)"><path stroke-linecap="round" stroke-linejoin="round" fill-opacity="0" stroke="rgb(198,31,21)" stroke-opacity="1" stroke-width="31.3" d=" M192.65199279785156,-4.656000137329102 C195.2239990234375,101.74299621582031 111.05500030517578,190.0800018310547 4.656000137329102,192.65199279785156 C-101.74299621582031,195.2239990234375 -190.0800018310547,111.05500030517578 -192.65199279785156,4.656000137329102 C-195.2239990234375,-101.74299621582031 -111.05500030517578,-190.0800018310547 -4.656000137329102,-192.65199279785156 C101.74299621582031,-195.2239990234375 190.0800018310547,-111.05500030517578 192.65199279785156,-4.656000137329102z"/></g></g><g class="primary design" transform="matrix(-1,0,0,-1,250.00399780273438,250.0030059814453)" opacity="1" style="display: none;"><path fill="rgb(198,31,21)" fill-opacity="1" d=" M192.65199279785156,-4.656000137329102 C195.2239990234375,101.74299621582031 111.05500030517578,190.0800018310547 4.656000137329102,192.65199279785156 C-101.74299621582031,195.2239990234375 -190.0800018310547,111.05500030517578 -192.65199279785156,4.656000137329102 C-195.2239990234375,-101.74299621582031 -111.05500030517578,-190.0800018310547 -4.656000137329102,-192.65199279785156 C101.74299621582031,-195.2239990234375 190.0800018310547,-111.05500030517578 192.65199279785156,-4.656000137329102z"/><g opacity="1" transform="matrix(1,0,0,1,0,0)"><path stroke-linecap="round" stroke-linejoin="round" fill-opacity="0" stroke="rgb(198,31,21)" stroke-opacity="1" stroke-width="31.3" d=" M192.65199279785156,-4.656000137329102 C195.2239990234375,101.74299621582031 111.05500030517578,190.0800018310547 4.656000137329102,192.65199279785156 C-101.74299621582031,195.2239990234375 -190.0800018310547,111.05500030517578 -192.65199279785156,4.656000137329102 C-195.2239990234375,-101.74299621582031 -111.05500030517578,-190.0800018310547 -4.656000137329102,-192.65199279785156 C101.74299621582031,-195.2239990234375 190.0800018310547,-111.05500030517578 192.65199279785156,-4.656000137329102z"/></g></g><g mask="url(#__lottie_element_59_2)" style="display: none;"><g class="primary design" transform="matrix(-0.9999773502349854,0,0,-0.9999773502349854,250.00399780273438,250.0030059814453)" opacity="1"><path fill="rgb(198,31,21)" fill-opacity="1" d=" M192.65199279785156,-4.656000137329102 C195.2239990234375,101.74299621582031 111.05500030517578,190.0800018310547 4.656000137329102,192.65199279785156 C-101.74299621582031,195.2239990234375 -190.0800018310547,111.05500030517578 -192.65199279785156,4.656000137329102 C-195.2239990234375,-101.74299621582031 -111.05500030517578,-190.0800018310547 -4.656000137329102,-192.65199279785156 C101.74299621582031,-195.2239990234375 190.0800018310547,-111.05500030517578 192.65199279785156,-4.656000137329102z"/><g opacity="1" transform="matrix(1,0,0,1,0,0)"><path stroke-linecap="round" stroke-linejoin="round" fill-opacity="0" stroke="rgb(198,31,21)" stroke-opacity="1" stroke-width="31.3" d=" M192.65199279785156,-4.656000137329102 C195.2239990234375,101.74299621582031 111.05500030517578,190.0800018310547 4.656000137329102,192.65199279785156 C-101.74299621582031,195.2239990234375 -190.0800018310547,111.05500030517578 -192.65199279785156,4.656000137329102 C-195.2239990234375,-101.74299621582031 -111.05500030517578,-190.0800018310547 -4.656000137329102,-192.65199279785156 C101.74299621582031,-195.2239990234375 190.0800018310547,-111.05500030517578 192.65199279785156,-4.656000137329102z"/></g></g></g></g><g clip-path="url(#__lottie_element_17)" transform="matrix(1,0,0,1,0,0)" opacity="0" style="display: block;"><g class="primary design" transform="matrix(0.9999794960021973,-0.0064035821706056595,0.0064035821706056595,0.9999794960021973,250.00399780273438,250.0030059814453)" opacity="1" style="display: none;"><path fill="rgb(198,31,21)" fill-opacity="1" d=" M17.880970001220703,-176.07887268066406 C18.122730255126953,-166.07298278808594 10.207980155944824,-157.7665252685547 0.2020971029996872,-157.52476501464844 C-9.803786277770996,-157.2830047607422 -18.110248565673828,-165.19775390625 -18.352008819580078,-175.20364379882812 C-18.593767166137695,-185.2095184326172 -10.680015563964844,-193.51597595214844 -0.6741329431533813,-193.7577362060547 C9.33174991607666,-193.99949645996094 17.639209747314453,-186.08474731445312 17.880970001220703,-176.07887268066406z"/><g opacity="1" transform="matrix(1,0,0,1,0,0)"><path stroke-linecap="round" stroke-linejoin="round" fill-opacity="0" stroke="rgb(198,31,21)" stroke-opacity="1" stroke-width="31.3" d=" M17.880970001220703,-176.07887268066406 C18.122730255126953,-166.07298278808594 10.207980155944824,-157.7665252685547 0.2020971029996872,-157.52476501464844 C-9.803786277770996,-157.2830047607422 -18.110248565673828,-165.19775390625 -18.352008819580078,-175.20364379882812 C-18.593767166137695,-185.2095184326172 -10.680015563964844,-193.51597595214844 -0.6741329431533813,-193.7577362060547 C9.33174991607666,-193.99949645996094 17.639209747314453,-186.08474731445312 17.880970001220703,-176.07887268066406z"/></g></g></g><g clip-path="url(#__lottie_element_21)" transform="matrix(1,0,0,1,0,0)" opacity="0" style="display: block;"><g class="primary design" transform="matrix(20.829999923706055,0,0,20.829999923706055,250,250)" opacity="1" style="display: none;"><g opacity="1" transform="matrix(1,0,0,1,0,0)"><path fill="rgb(198,31,21)" fill-opacity="1" d=" M-0.23999999463558197,-10 C-5.75,-9.859999656677246 -10.130000114440918,-5.269999980926514 -10,0.23999999463558197 C-9.869999885559082,5.670000076293945 -5.409999847412109,10 0,10 C0,10 0.23999999463558197,10 0.23999999463558197,10 C5.75,9.859999656677246 10.130000114440918,5.269999980926514 10,-0.23999999463558197 C9.859999656677246,-5.75 5.289999961853027,-10.140000343322754 -0.23999999463558197,-10z M3.9600000381469727,2.5399999618530273 C4.349999904632568,2.930000066757202 4.349999904632568,3.569999933242798 3.9600000381469727,3.9600000381469727 C3.759999990463257,4.150000095367432 3.509999990463257,4.25 3.25,4.25 C2.990000009536743,4.25 2.740000009536743,4.150000095367432 2.5399999618530273,3.9600000381469727 C2.5399999618530273,3.9600000381469727 0,1.4199999570846558 0,1.4199999570846558 C0,1.4199999570846558 -2.5399999618530273,3.9600000381469727 -2.5399999618530273,3.9600000381469727 C-2.740000009536743,4.150000095367432 -2.990000009536743,4.25 -3.25,4.25 C-3.509999990463257,4.25 -3.759999990463257,4.150000095367432 -3.9600000381469727,3.9600000381469727 C-4.349999904632568,3.569999933242798 -4.349999904632568,2.930000066757202 -3.9600000381469727,2.5399999618530273 C-3.9600000381469727,2.5399999618530273 -1.4199999570846558,0 -1.4199999570846558,0 C-1.4199999570846558,0 -3.9600000381469727,-2.5399999618530273 -3.9600000381469727,-2.5399999618530273 C-4.349999904632568,-2.930000066757202 -4.349999904632568,-3.569999933242798 -3.9600000381469727,-3.9600000381469727 C-3.569999933242798,-4.349999904632568 -2.930000066757202,-4.349999904632568 -2.5399999618530273,-3.9600000381469727 C-2.5399999618530273,-3.9600000381469727 0,-1.4199999570846558 0,-1.4199999570846558 C0,-1.4199999570846558 2.5399999618530273,-3.9600000381469727 2.5399999618530273,-3.9600000381469727 C2.930000066757202,-4.349999904632568 3.569999933242798,-4.349999904632568 3.9600000381469727,-3.9600000381469727 C4.349999904632568,-3.569999933242798 4.349999904632568,-2.930000066757202 3.9600000381469727,-2.5399999618530273 C3.9600000381469727,-2.5399999618530273 1.4199999570846558,0 1.4199999570846558,0 C1.4199999570846558,0 3.9600000381469727,2.5399999618530273 3.9600000381469727,2.5399999618530273z"/></g></g><g class="primary design" transform="matrix(20.829999923706055,0,0,20.829999923706055,250,250)" opacity="1" style="display: block;"><g opacity="1" transform="matrix(1,0,0,1,0,0)"><path fill="rgb(198,31,21)" fill-opacity="1" d=" M-0.23999999463558197,-10 C-5.75,-9.859999656677246 -10.130000114440918,-5.269999980926514 -10,0.23999999463558197 C-9.869999885559082,5.670000076293945 -5.409999847412109,10 0,10 C0,10 0.23999999463558197,10 0.23999999463558197,10 C5.75,9.859999656677246 10.130000114440918,5.269999980926514 10,-0.23999999463558197 C9.859999656677246,-5.75 5.289999961853027,-10.140000343322754 -0.23999999463558197,-10z M3.9600000381469727,2.5399999618530273 C4.349999904632568,2.930000066757202 4.349999904632568,3.569999933242798 3.9600000381469727,3.9600000381469727 C3.759999990463257,4.150000095367432 3.509999990463257,4.25 3.25,4.25 C2.990000009536743,4.25 2.740000009536743,4.150000095367432 2.5399999618530273,3.9600000381469727 C2.5399999618530273,3.9600000381469727 0,1.4199999570846558 0,1.4199999570846558 C0,1.4199999570846558 -2.5399999618530273,3.9600000381469727 -2.5399999618530273,3.9600000381469727 C-2.740000009536743,4.150000095367432 -2.990000009536743,4.25 -3.25,4.25 C-3.509999990463257,4.25 -3.759999990463257,4.150000095367432 -3.9600000381469727,3.9600000381469727 C-4.349999904632568,3.569999933242798 -4.349999904632568,2.930000066757202 -3.9600000381469727,2.5399999618530273 C-3.9600000381469727,2.5399999618530273 -1.4199999570846558,0 -1.4199999570846558,0 C-1.4199999570846558,0 -3.9600000381469727,-2.5399999618530273 -3.9600000381469727,-2.5399999618530273 C-4.349999904632568,-2.930000066757202 -4.349999904632568,-3.569999933242798 -3.9600000381469727,-3.9600000381469727 C-3.569999933242798,-4.349999904632568 -2.930000066757202,-4.349999904632568 -2.5399999618530273,-3.9600000381469727 C-2.5399999618530273,-3.9600000381469727 0,-1.4199999570846558 0,-1.4199999570846558 C0,-1.4199999570846558 2.5399999618530273,-3.9600000381469727 2.5399999618530273,-3.9600000381469727 C2.930000066757202,-4.349999904632568 3.569999933242798,-4.349999904632568 3.9600000381469727,-3.9600000381469727 C4.349999904632568,-3.569999933242798 4.349999904632568,-2.930000066757202 3.9600000381469727,-2.5399999618530273 C3.9600000381469727,-2.5399999618530273 1.4199999570846558,0 1.4199999570846558,0 C1.4199999570846558,0 3.9600000381469727,2.5399999618530273 3.9600000381469727,2.5399999618530273z"/></g></g><g mask="url(#__lottie_element_79_2)" style="display: none;"><g class="primary design" transform="matrix(20.829999923706055,0,0,20.829999923706055,250,250)" opacity="1"><g opacity="1" transform="matrix(1,0,0,1,0,0)"><path fill="rgb(198,31,21)" fill-opacity="1" d=" M-0.23999999463558197,-10 C-5.75,-9.859999656677246 -10.130000114440918,-5.269999980926514 -10,0.23999999463558197 C-9.869999885559082,5.670000076293945 -5.409999847412109,10 0,10 C0,10 0.23999999463558197,10 0.23999999463558197,10 C5.75,9.859999656677246 10.130000114440918,5.269999980926514 10,-0.23999999463558197 C9.859999656677246,-5.75 5.289999961853027,-10.140000343322754 -0.23999999463558197,-10z"/></g></g></g></g><g clip-path="url(#__lottie_element_25)" transform="matrix(1,0,0,1,0,0)" opacity="0" style="display: block;"><g mask="url(#__lottie_element_94_2)" style="display: none;"><g class="primary design" transform="matrix(-1,0,0,-1,250.00399780273438,250.0030059814453)" opacity="1"><path fill="rgb(198,31,21)" fill-opacity="1" d=" M192.65199279785156,-4.656000137329102 C195.2239990234375,101.74299621582031 111.05500030517578,190.0800018310547 4.656000137329102,192.65199279785156 C-101.74299621582031,195.2239990234375 -190.0800018310547,111.05500030517578 -192.65199279785156,4.656000137329102 C-195.2239990234375,-101.74299621582031 -111.05500030517578,-190.0800018310547 -4.656000137329102,-192.65199279785156 C101.74299621582031,-195.2239990234375 190.0800018310547,-111.05500030517578 192.65199279785156,-4.656000137329102z"/><g opacity="1" transform="matrix(1,0,0,1,0,0)"><path stroke-linecap="round" stroke-linejoin="round" fill-opacity="0" stroke="rgb(198,31,21)" stroke-opacity="1" stroke-width="31.3" d=" M192.65199279785156,-4.656000137329102 C195.2239990234375,101.74299621582031 111.05500030517578,190.0800018310547 4.656000137329102,192.65199279785156 C-101.74299621582031,195.2239990234375 -190.0800018310547,111.05500030517578 -192.65199279785156,4.656000137329102 C-195.2239990234375,-101.74299621582031 -111.05500030517578,-190.0800018310547 -4.656000137329102,-192.65199279785156 C101.74299621582031,-195.2239990234375 190.0800018310547,-111.05500030517578 192.65199279785156,-4.656000137329102z"/></g></g></g><g class="primary design" transform="matrix(20.829999923706055,0,0,20.829999923706055,250,250)" opacity="1" style="display: none;"><g opacity="1" transform="matrix(1,0,0,1,0,0)"><path fill="rgb(198,31,21)" fill-opacity="1" d=" M-0.23999999463558197,-10 C-5.75,-9.859999656677246 -10.130000114440918,-5.269999980926514 -10,0.23999999463558197 C-9.869999885559082,5.670000076293945 -5.409999847412109,10 0,10 C0,10 0.23999999463558197,10 0.23999999463558197,10 C5.75,9.859999656677246 10.130000114440918,5.269999980926514 10,-0.23999999463558197 C9.859999656677246,-5.75 5.289999961853027,-10.140000343322754 -0.23999999463558197,-10z M3.9600000381469727,2.5399999618530273 C4.349999904632568,2.930000066757202 4.349999904632568,3.569999933242798 3.9600000381469727,3.9600000381469727 C3.759999990463257,4.150000095367432 3.509999990463257,4.25 3.25,4.25 C2.990000009536743,4.25 2.740000009536743,4.150000095367432 2.5399999618530273,3.9600000381469727 C2.5399999618530273,3.9600000381469727 0,1.4199999570846558 0,1.4199999570846558 C0,1.4199999570846558 -2.5399999618530273,3.9600000381469727 -2.5399999618530273,3.9600000381469727 C-2.740000009536743,4.150000095367432 -2.990000009536743,4.25 -3.25,4.25 C-3.509999990463257,4.25 -3.759999990463257,4.150000095367432 -3.9600000381469727,3.9600000381469727 C-4.349999904632568,3.569999933242798 -4.349999904632568,2.930000066757202 -3.9600000381469727,2.5399999618530273 C-3.9600000381469727,2.5399999618530273 -1.4199999570846558,0 -1.4199999570846558,0 C-1.4199999570846558,0 -3.9600000381469727,-2.5399999618530273 -3.9600000381469727,-2.5399999618530273 C-4.349999904632568,-2.930000066757202 -4.349999904632568,-3.569999933242798 -3.9600000381469727,-3.9600000381469727 C-3.569999933242798,-4.349999904632568 -2.930000066757202,-4.349999904632568 -2.5399999618530273,-3.9600000381469727 C-2.5399999618530273,-3.9600000381469727 0,-1.4199999570846558 0,-1.4199999570846558 C0,-1.4199999570846558 2.5399999618530273,-3.9600000381469727 2.5399999618530273,-3.9600000381469727 C2.930000066757202,-4.349999904632568 3.569999933242798,-4.349999904632568 3.9600000381469727,-3.9600000381469727 C4.349999904632568,-3.569999933242798 4.349999904632568,-2.930000066757202 3.9600000381469727,-2.5399999618530273 C3.9600000381469727,-2.5399999618530273 1.4199999570846558,0 1.4199999570846558,0 C1.4199999570846558,0 3.9600000381469727,2.5399999618530273 3.9600000381469727,2.5399999618530273z"/></g></g><g class="primary design" transform="matrix(20.829999923706055,0,0,20.829999923706055,250,250)" opacity="1" style="display: block;"><g opacity="1" transform="matrix(1,0,0,1,0,0)"><path fill="rgb(198,31,21)" fill-opacity="1" d=" M-0.23999999463558197,-10 C-5.75,-9.859999656677246 -10.130000114440918,-5.269999980926514 -10,0.23999999463558197 C-9.869999885559082,5.670000076293945 -5.409999847412109,10 0,10 C0,10 0.23999999463558197,10 0.23999999463558197,10 C5.75,9.859999656677246 10.130000114440918,5.269999980926514 10,-0.23999999463558197 C9.859999656677246,-5.75 5.289999961853027,-10.140000343322754 -0.23999999463558197,-10z M3.9600000381469727,2.5399999618530273 C4.349999904632568,2.930000066757202 4.349999904632568,3.569999933242798 3.9600000381469727,3.9600000381469727 C3.759999990463257,4.150000095367432 3.509999990463257,4.25 3.25,4.25 C2.990000009536743,4.25 2.740000009536743,4.150000095367432 2.5399999618530273,3.9600000381469727 C2.5399999618530273,3.9600000381469727 0,1.4199999570846558 0,1.4199999570846558 C0,1.4199999570846558 -2.5399999618530273,3.9600000381469727 -2.5399999618530273,3.9600000381469727 C-2.740000009536743,4.150000095367432 -2.990000009536743,4.25 -3.25,4.25 C-3.509999990463257,4.25 -3.759999990463257,4.150000095367432 -3.9600000381469727,3.9600000381469727 C-4.349999904632568,3.569999933242798 -4.349999904632568,2.930000066757202 -3.9600000381469727,2.5399999618530273 C-3.9600000381469727,2.5399999618530273 -1.4199999570846558,0 -1.4199999570846558,0 C-1.4199999570846558,0 -3.9600000381469727,-2.5399999618530273 -3.9600000381469727,-2.5399999618530273 C-4.349999904632568,-2.930000066757202 -4.349999904632568,-3.569999933242798 -3.9600000381469727,-3.9600000381469727 C-3.569999933242798,-4.349999904632568 -2.930000066757202,-4.349999904632568 -2.5399999618530273,-3.9600000381469727 C-2.5399999618530273,-3.9600000381469727 0,-1.4199999570846558 0,-1.4199999570846558 C0,-1.4199999570846558 2.5399999618530273,-3.9600000381469727 2.5399999618530273,-3.9600000381469727 C2.930000066757202,-4.349999904632568 3.569999933242798,-4.349999904632568 3.9600000381469727,-3.9600000381469727 C4.349999904632568,-3.569999933242798 4.349999904632568,-2.930000066757202 3.9600000381469727,-2.5399999618530273 C3.9600000381469727,-2.5399999618530273 1.4199999570846558,0 1.4199999570846558,0 C1.4199999570846558,0 3.9600000381469727,2.5399999618530273 3.9600000381469727,2.5399999618530273z"/></g></g></g><g clip-path="url(#__lottie_element_29)" transform="matrix(1,0,0,1,0,0)" opacity="0" style="display: block;"><g mask="url(#__lottie_element_108_2)" style="display: none;"><g class="primary design" transform="matrix(-1,0,0,-1,250.00399780273438,250.0030059814453)" opacity="1"><path fill="rgb(198,31,21)" fill-opacity="1" d=" M192.65199279785156,-4.656000137329102 C195.2239990234375,101.74299621582031 111.05500030517578,190.0800018310547 4.656000137329102,192.65199279785156 C-101.74299621582031,195.2239990234375 -190.0800018310547,111.05500030517578 -192.65199279785156,4.656000137329102 C-195.2239990234375,-101.74299621582031 -111.05500030517578,-190.0800018310547 -4.656000137329102,-192.65199279785156 C101.74299621582031,-195.2239990234375 190.0800018310547,-111.05500030517578 192.65199279785156,-4.656000137329102z"/><g opacity="1" transform="matrix(1,0,0,1,0,0)"><path stroke-linecap="round" stroke-linejoin="round" fill-opacity="0" stroke="rgb(198,31,21)" stroke-opacity="1" stroke-width="31.3" d=" M192.65199279785156,-4.656000137329102 C195.2239990234375,101.74299621582031 111.05500030517578,190.0800018310547 4.656000137329102,192.65199279785156 C-101.74299621582031,195.2239990234375 -190.0800018310547,111.05500030517578 -192.65199279785156,4.656000137329102 C-195.2239990234375,-101.74299621582031 -111.05500030517578,-190.0800018310547 -4.656000137329102,-192.65199279785156 C101.74299621582031,-195.2239990234375 190.0800018310547,-111.05500030517578 192.65199279785156,-4.656000137329102z"/></g></g></g><g class="primary design" transform="matrix(20.829999923706055,0,0,20.829999923706055,250,250)" opacity="1" style="display: none;"><g opacity="1" transform="matrix(1,0,0,1,0,0)"><path fill="rgb(198,31,21)" fill-opacity="1" d=" M-0.23999999463558197,-10 C-5.75,-9.859999656677246 -10.130000114440918,-5.269999980926514 -10,0.23999999463558197 C-9.869999885559082,5.670000076293945 -5.409999847412109,10 0,10 C0,10 0.23999999463558197,10 0.23999999463558197,10 C5.75,9.859999656677246 10.130000114440918,5.269999980926514 10,-0.23999999463558197 C9.859999656677246,-5.75 5.289999961853027,-10.140000343322754 -0.23999999463558197,-10z M3.9600000381469727,2.5399999618530273 C4.349999904632568,2.930000066757202 4.349999904632568,3.569999933242798 3.9600000381469727,3.9600000381469727 C3.759999990463257,4.150000095367432 3.509999990463257,4.25 3.25,4.25 C2.990000009536743,4.25 2.740000009536743,4.150000095367432 2.5399999618530273,3.9600000381469727 C2.5399999618530273,3.9600000381469727 0,1.4199999570846558 0,1.4199999570846558 C0,1.4199999570846558 -2.5399999618530273,3.9600000381469727 -2.5399999618530273,3.9600000381469727 C-2.740000009536743,4.150000095367432 -2.990000009536743,4.25 -3.25,4.25 C-3.509999990463257,4.25 -3.759999990463257,4.150000095367432 -3.9600000381469727,3.9600000381469727 C-4.349999904632568,3.569999933242798 -4.349999904632568,2.930000066757202 -3.9600000381469727,2.5399999618530273 C-3.9600000381469727,2.5399999618530273 -1.4199999570846558,0 -1.4199999570846558,0 C-1.4199999570846558,0 -3.9600000381469727,-2.5399999618530273 -3.9600000381469727,-2.5399999618530273 C-4.349999904632568,-2.930000066757202 -4.349999904632568,-3.569999933242798 -3.9600000381469727,-3.9600000381469727 C-3.569999933242798,-4.349999904632568 -2.930000066757202,-4.349999904632568 -2.5399999618530273,-3.9600000381469727 C-2.5399999618530273,-3.9600000381469727 0,-1.4199999570846558 0,-1.4199999570846558 C0,-1.4199999570846558 2.5399999618530273,-3.9600000381469727 2.5399999618530273,-3.9600000381469727 C2.930000066757202,-4.349999904632568 3.569999933242798,-4.349999904632568 3.9600000381469727,-3.9600000381469727 C4.349999904632568,-3.569999933242798 4.349999904632568,-2.930000066757202 3.9600000381469727,-2.5399999618530273 C3.9600000381469727,-2.5399999618530273 1.4199999570846558,0 1.4199999570846558,0 C1.4199999570846558,0 3.9600000381469727,2.5399999618530273 3.9600000381469727,2.5399999618530273z"/></g></g><g class="primary design" transform="matrix(20.829999923706055,0,0,20.829999923706055,250,250)" opacity="1" style="display: block;"><g opacity="1" transform="matrix(1,0,0,1,0,0)"><path fill="rgb(198,31,21)" fill-opacity="1" d=" M-0.23999999463558197,-10 C-5.75,-9.859999656677246 -10.130000114440918,-5.269999980926514 -10,0.23999999463558197 C-9.869999885559082,5.670000076293945 -5.409999847412109,10 0,10 C0,10 0.23999999463558197,10 0.23999999463558197,10 C5.75,9.859999656677246 10.130000114440918,5.269999980926514 10,-0.23999999463558197 C9.859999656677246,-5.75 5.289999961853027,-10.140000343322754 -0.23999999463558197,-10z M3.9600000381469727,2.5399999618530273 C4.349999904632568,2.930000066757202 4.349999904632568,3.569999933242798 3.9600000381469727,3.9600000381469727 C3.759999990463257,4.150000095367432 3.509999990463257,4.25 3.25,4.25 C2.990000009536743,4.25 2.740000009536743,4.150000095367432 2.5399999618530273,3.9600000381469727 C2.5399999618530273,3.9600000381469727 0,1.4199999570846558 0,1.4199999570846558 C0,1.4199999570846558 -2.5399999618530273,3.9600000381469727 -2.5399999618530273,3.9600000381469727 C-2.740000009536743,4.150000095367432 -2.990000009536743,4.25 -3.25,4.25 C-3.509999990463257,4.25 -3.759999990463257,4.150000095367432 -3.9600000381469727,3.9600000381469727 C-4.349999904632568,3.569999933242798 -4.349999904632568,2.930000066757202 -3.9600000381469727,2.5399999618530273 C-3.9600000381469727,2.5399999618530273 -1.4199999570846558,0 -1.4199999570846558,0 C-1.4199999570846558,0 -3.9600000381469727,-2.5399999618530273 -3.9600000381469727,-2.5399999618530273 C-4.349999904632568,-2.930000066757202 -4.349999904632568,-3.569999933242798 -3.9600000381469727,-3.9600000381469727 C-3.569999933242798,-4.349999904632568 -2.930000066757202,-4.349999904632568 -2.5399999618530273,-3.9600000381469727 C-2.5399999618530273,-3.9600000381469727 0,-1.4199999570846558 0,-1.4199999570846558 C0,-1.4199999570846558 2.5399999618530273,-3.9600000381469727 2.5399999618530273,-3.9600000381469727 C2.930000066757202,-4.349999904632568 3.569999933242798,-4.349999904632568 3.9600000381469727,-3.9600000381469727 C4.349999904632568,-3.569999933242798 4.349999904632568,-2.930000066757202 3.9600000381469727,-2.5399999618530273 C3.9600000381469727,-2.5399999618530273 1.4199999570846558,0 1.4199999570846558,0 C1.4199999570846558,0 3.9600000381469727,2.5399999618530273 3.9600000381469727,2.5399999618530273z"/></g></g></g><g clip-path="url(#__lottie_element_33)" transform="matrix(1,0,0,1,0,0)" opacity="1" style="display: block;"><g mask="url(#__lottie_element_123_2)" style="display: none;"><g class="primary design" transform="matrix(-1,0,0,-1,250.00399780273438,250.0030059814453)" opacity="1"><path fill="rgb(198,31,21)" fill-opacity="1" d=" M192.65199279785156,-4.656000137329102 C195.2239990234375,101.74299621582031 111.05500030517578,190.0800018310547 4.656000137329102,192.65199279785156 C-101.74299621582031,195.2239990234375 -190.0800018310547,111.05500030517578 -192.65199279785156,4.656000137329102 C-195.2239990234375,-101.74299621582031 -111.05500030517578,-190.0800018310547 -4.656000137329102,-192.65199279785156 C101.74299621582031,-195.2239990234375 190.0800018310547,-111.05500030517578 192.65199279785156,-4.656000137329102z"/><g opacity="1" transform="matrix(1,0,0,1,0,0)"><path stroke-linecap="round" stroke-linejoin="round" fill-opacity="0" stroke="rgb(198,31,21)" stroke-opacity="1" stroke-width="31.3" d=" M192.65199279785156,-4.656000137329102 C195.2239990234375,101.74299621582031 111.05500030517578,190.0800018310547 4.656000137329102,192.65199279785156 C-101.74299621582031,195.2239990234375 -190.0800018310547,111.05500030517578 -192.65199279785156,4.656000137329102 C-195.2239990234375,-101.74299621582031 -111.05500030517578,-190.0800018310547 -4.656000137329102,-192.65199279785156 C101.74299621582031,-195.2239990234375 190.0800018310547,-111.05500030517578 192.65199279785156,-4.656000137329102z"/></g></g></g><g class="primary design" transform="matrix(20.829999923706055,0,0,20.829999923706055,250,250)" opacity="1" style="display: block;"><g opacity="1" transform="matrix(1,0,0,1,0,0)"><path fill="rgb(198,31,21)" fill-opacity="1" d=" M-0.23999999463558197,-10 C-5.75,-9.859999656677246 -10.130000114440918,-5.269999980926514 -10,0.23999999463558197 C-9.869999885559082,5.670000076293945 -5.409999847412109,10 0,10 C0,10 0.23999999463558197,10 0.23999999463558197,10 C5.75,9.859999656677246 10.130000114440918,5.269999980926514 10,-0.23999999463558197 C9.859999656677246,-5.75 5.289999961853027,-10.140000343322754 -0.23999999463558197,-10z M3.9600000381469727,2.5399999618530273 C4.349999904632568,2.930000066757202 4.349999904632568,3.569999933242798 3.9600000381469727,3.9600000381469727 C3.759999990463257,4.150000095367432 3.509999990463257,4.25 3.25,4.25 C2.990000009536743,4.25 2.740000009536743,4.150000095367432 2.5399999618530273,3.9600000381469727 C2.5399999618530273,3.9600000381469727 0,1.4199999570846558 0,1.4199999570846558 C0,1.4199999570846558 -2.5399999618530273,3.9600000381469727 -2.5399999618530273,3.9600000381469727 C-2.740000009536743,4.150000095367432 -2.990000009536743,4.25 -3.25,4.25 C-3.509999990463257,4.25 -3.759999990463257,4.150000095367432 -3.9600000381469727,3.9600000381469727 C-4.349999904632568,3.569999933242798 -4.349999904632568,2.930000066757202 -3.9600000381469727,2.5399999618530273 C-3.9600000381469727,2.5399999618530273 -1.4199999570846558,0 -1.4199999570846558,0 C-1.4199999570846558,0 -3.9600000381469727,-2.5399999618530273 -3.9600000381469727,-2.5399999618530273 C-4.349999904632568,-2.930000066757202 -4.349999904632568,-3.569999933242798 -3.9600000381469727,-3.9600000381469727 C-3.569999933242798,-4.349999904632568 -2.930000066757202,-4.349999904632568 -2.5399999618530273,-3.9600000381469727 C-2.5399999618530273,-3.9600000381469727 0,-1.4199999570846558 0,-1.4199999570846558 C0,-1.4199999570846558 2.5399999618530273,-3.9600000381469727 2.5399999618530273,-3.9600000381469727 C2.930000066757202,-4.349999904632568 3.569999933242798,-4.349999904632568 3.9600000381469727,-3.9600000381469727 C4.349999904632568,-3.569999933242798 4.349999904632568,-2.930000066757202 3.9600000381469727,-2.5399999618530273 C3.9600000381469727,-2.5399999618530273 1.4199999570846558,0 1.4199999570846558,0 C1.4199999570846558,0 3.9600000381469727,2.5399999618530273 3.9600000381469727,2.5399999618530273z"/></g></g><g class="primary design" transform="matrix(20.829999923706055,0,0,20.829999923706055,250,250)" opacity="1" style="display: none;"><g opacity="1" transform="matrix(1,0,0,1,0,0)"><path fill="rgb(198,31,21)" fill-opacity="1" d=" M-0.23999999463558197,-10 C-5.75,-9.859999656677246 -10.130000114440918,-5.269999980926514 -10,0.23999999463558197 C-9.869999885559082,5.670000076293945 -5.409999847412109,10 0,10 C0,10 0.23999999463558197,10 0.23999999463558197,10 C5.75,9.859999656677246 10.130000114440918,5.269999980926514 10,-0.23999999463558197 C9.859999656677246,-5.75 5.289999961853027,-10.140000343322754 -0.23999999463558197,-10z M3.9600000381469727,2.5399999618530273 C4.349999904632568,2.930000066757202 4.349999904632568,3.569999933242798 3.9600000381469727,3.9600000381469727 C3.759999990463257,4.150000095367432 3.509999990463257,4.25 3.25,4.25 C2.990000009536743,4.25 2.740000009536743,4.150000095367432 2.5399999618530273,3.9600000381469727 C2.5399999618530273,3.9600000381469727 0,1.4199999570846558 0,1.4199999570846558 C0,1.4199999570846558 -2.5399999618530273,3.9600000381469727 -2.5399999618530273,3.9600000381469727 C-2.740000009536743,4.150000095367432 -2.990000009536743,4.25 -3.25,4.25 C-3.509999990463257,4.25 -3.759999990463257,4.150000095367432 -3.9600000381469727,3.9600000381469727 C-4.349999904632568,3.569999933242798 -4.349999904632568,2.930000066757202 -3.9600000381469727,2.5399999618530273 C-3.9600000381469727,2.5399999618530273 -1.4199999570846558,0 -1.4199999570846558,0 C-1.4199999570846558,0 -3.9600000381469727,-2.5399999618530273 -3.9600000381469727,-2.5399999618530273 C-4.349999904632568,-2.930000066757202 -4.349999904632568,-3.569999933242798 -3.9600000381469727,-3.9600000381469727 C-3.569999933242798,-4.349999904632568 -2.930000066757202,-4.349999904632568 -2.5399999618530273,-3.9600000381469727 C-2.5399999618530273,-3.9600000381469727 0,-1.4199999570846558 0,-1.4199999570846558 C0,-1.4199999570846558 2.5399999618530273,-3.9600000381469727 2.5399999618530273,-3.9600000381469727 C2.930000066757202,-4.349999904632568 3.569999933242798,-4.349999904632568 3.9600000381469727,-3.9600000381469727 C4.349999904632568,-3.569999933242798 4.349999904632568,-2.930000066757202 3.9600000381469727,-2.5399999618530273 C3.9600000381469727,-2.5399999618530273 1.4199999570846558,0 1.4199999570846558,0 C1.4199999570846558,0 3.9600000381469727,2.5399999618530273 3.9600000381469727,2.5399999618530273z"/></g></g></g><g clip-path="url(#__lottie_element_37)" transform="matrix(1,0,0,1,0,0)" opacity="0" style="display: block;"><g mask="url(#__lottie_element_137_2)" style="display: none;"><g class="primary design" transform="matrix(0.9999794960021973,-0.0064035821706056595,0.0064035821706056595,0.9999794960021973,250.00399780273438,250.0030059814453)" opacity="1"><path fill="rgb(198,31,21)" fill-opacity="1" d=" M17.880970001220703,-176.07887268066406 C18.122730255126953,-166.07298278808594 10.207980155944824,-157.7665252685547 0.2020971029996872,-157.52476501464844 C-9.803786277770996,-157.2830047607422 -18.110248565673828,-165.19775390625 -18.352008819580078,-175.20364379882812 C-18.593767166137695,-185.2095184326172 -10.680015563964844,-193.51597595214844 -0.6741329431533813,-193.7577362060547 C9.33174991607666,-193.99949645996094 17.639209747314453,-186.08474731445312 17.880970001220703,-176.07887268066406z"/><g opacity="1" transform="matrix(1,0,0,1,0,0)"><path stroke-linecap="round" stroke-linejoin="round" fill-opacity="0" stroke="rgb(198,31,21)" stroke-opacity="1" stroke-width="31.3" d=" M17.880970001220703,-176.07887268066406 C18.122730255126953,-166.07298278808594 10.207980155944824,-157.7665252685547 0.2020971029996872,-157.52476501464844 C-9.803786277770996,-157.2830047607422 -18.110248565673828,-165.19775390625 -18.352008819580078,-175.20364379882812 C-18.593767166137695,-185.2095184326172 -10.680015563964844,-193.51597595214844 -0.6741329431533813,-193.7577362060547 C9.33174991607666,-193.99949645996094 17.639209747314453,-186.08474731445312 17.880970001220703,-176.07887268066406z"/></g></g></g><g class="primary design" transform="matrix(20.829999923706055,0,0,20.829999923706055,250,250)" opacity="1" style="display: none;"><g opacity="1" transform="matrix(1,0,0,1,0,0)"><path fill="rgb(198,31,21)" fill-opacity="1" d=" M-0.23999999463558197,-10 C-5.75,-9.859999656677246 -10.130000114440918,-5.269999980926514 -10,0.23999999463558197 C-9.869999885559082,5.670000076293945 -5.409999847412109,10 0,10 C0,10 0.23999999463558197,10 0.23999999463558197,10 C5.75,9.859999656677246 10.130000114440918,5.269999980926514 10,-0.23999999463558197 C9.859999656677246,-5.75 5.289999961853027,-10.140000343322754 -0.23999999463558197,-10z M3.9600000381469727,2.5399999618530273 C4.349999904632568,2.930000066757202 4.349999904632568,3.569999933242798 3.9600000381469727,3.9600000381469727 C3.759999990463257,4.150000095367432 3.509999990463257,4.25 3.25,4.25 C2.990000009536743,4.25 2.740000009536743,4.150000095367432 2.5399999618530273,3.9600000381469727 C2.5399999618530273,3.9600000381469727 0,1.4199999570846558 0,1.4199999570846558 C0,1.4199999570846558 -2.5399999618530273,3.9600000381469727 -2.5399999618530273,3.9600000381469727 C-2.740000009536743,4.150000095367432 -2.990000009536743,4.25 -3.25,4.25 C-3.509999990463257,4.25 -3.759999990463257,4.150000095367432 -3.9600000381469727,3.9600000381469727 C-4.349999904632568,3.569999933242798 -4.349999904632568,2.930000066757202 -3.9600000381469727,2.5399999618530273 C-3.9600000381469727,2.5399999618530273 -1.4199999570846558,0 -1.4199999570846558,0 C-1.4199999570846558,0 -3.9600000381469727,-2.5399999618530273 -3.9600000381469727,-2.5399999618530273 C-4.349999904632568,-2.930000066757202 -4.349999904632568,-3.569999933242798 -3.9600000381469727,-3.9600000381469727 C-3.569999933242798,-4.349999904632568 -2.930000066757202,-4.349999904632568 -2.5399999618530273,-3.9600000381469727 C-2.5399999618530273,-3.9600000381469727 0,-1.4199999570846558 0,-1.4199999570846558 C0,-1.4199999570846558 2.5399999618530273,-3.9600000381469727 2.5399999618530273,-3.9600000381469727 C2.930000066757202,-4.349999904632568 3.569999933242798,-4.349999904632568 3.9600000381469727,-3.9600000381469727 C4.349999904632568,-3.569999933242798 4.349999904632568,-2.930000066757202 3.9600000381469727,-2.5399999618530273 C3.9600000381469727,-2.5399999618530273 1.4199999570846558,0 1.4199999570846558,0 C1.4199999570846558,0 3.9600000381469727,2.5399999618530273 3.9600000381469727,2.5399999618530273z"/></g></g></g><g class="com" style="display: none;"><g><path/></g><g><path/></g><g><path/></g><g><path/></g><g><path/></g><g><path/></g><g><path/></g><g><path/></g><g><path/></g><g><path/></g><g><path/></g><g><path/></g></g></g></svg>